<?xml version="1.0" encoding="utf-8"?>
<!-- Generator: Adobe Illustrator 21.0.2, SVG Export Plug-In . SVG Version: 6.00 Build 0)  -->
<svg version="1.1" id="Слой_1" xmlns="http://www.w3.org/2000/svg" xmlns:xlink="http://www.w3.org/1999/xlink" x="0px" y="0px"
	 viewBox="0 0 20 20" style="enable-background:new 0 0 20 20;" xml:space="preserve">
<style type="text/css">
	.st0{fill:#46444F;}
</style>
<g>
	<g>
		<path class="st0" d="M16.9,5.7c0-0.3-0.3-0.5-0.6-0.5h-3.6V3.7C12.7,2.2,11.5,1,10,1S7.3,2.2,7.3,3.7v1.5H3.7
			c-0.3,0-0.6,0.2-0.6,0.5L1,18.3c0,0.2,0,0.4,0.1,0.5S1.5,19,1.6,19h16.7c0,0,0,0,0,0c0.4,0,0.6-0.3,0.6-0.6c0-0.1,0-0.1,0-0.2
			C19,18.2,16.9,5.7,16.9,5.7z M8.6,3.7c0-0.8,0.7-1.5,1.5-1.5s1.5,0.7,1.5,1.5v1.5H8.6C8.6,5.2,8.6,3.7,8.6,3.7z M2.4,17.7L4.3,6.5
			h3V10c0,0.4,0.3,0.6,0.6,0.6c0.4,0,0.6-0.3,0.6-0.6V6.5h2.9V10c0,0.4,0.3,0.6,0.6,0.6c0.4,0,0.6-0.3,0.6-0.6V6.5h3l1.9,11.3H2.4
			L2.4,17.7z"/>
	</g>
</g>
</svg>
