<?xml version="1.0" encoding="utf-8"?>
<!-- Generator: Adobe Illustrator 21.0.2, SVG Export Plug-In . SVG Version: 6.00 Build 0)  -->
<svg version="1.1" id="Слой_1" xmlns="http://www.w3.org/2000/svg" xmlns:xlink="http://www.w3.org/1999/xlink" x="0px" y="0px"
	 viewBox="0 0 50 50" style="enable-background:new 0 0 50 50;" xml:space="preserve">
<style type="text/css">
	.st0{fill:none;stroke:#C7BAF1;stroke-miterlimit:10;}
	.st1{fill:#C7BAF1;}
</style>
<circle class="st0" cx="25" cy="25.4" r="23.5"/>
<g>
	<g>
		<g>
			<path class="st1" d="M35.4,30.9c0-0.1-1.2-2.3-4.4-3.1c-0.2-0.1-0.5,0-0.6,0.2c-1,0.9-2.4,1.8-3,1.9c-4.1-2-6.4-5.8-6.4-6.5
				c-0.1-0.4,0.9-1.8,2-3c0.1-0.1,0.2-0.3,0.2-0.5c-0.3-3.1-3.6-4.7-3.7-4.7c-0.1-0.1-0.3-0.1-0.4-0.1c-3.8,0.6-4.4,2.8-4.4,2.9
				c0,0.1,0,0.3,0,0.4c4.5,14,13.9,16.6,17,17.5l0.6,0.2l0.2,0l0.3-0.1c0.1,0,2.3-1.1,2.9-4.5C35.5,31.2,35.4,31,35.4,30.9z"/>
		</g>
	</g>
</g>
</svg>
