<?xml version="1.0" encoding="utf-8"?>
<!-- Generator: Adobe Illustrator 21.0.2, SVG Export Plug-In . SVG Version: 6.00 Build 0)  -->
<svg version="1.1" id="Слой_1" xmlns="http://www.w3.org/2000/svg" xmlns:xlink="http://www.w3.org/1999/xlink" x="0px" y="0px"
	 viewBox="0 0 50 50" style="enable-background:new 0 0 50 50;" xml:space="preserve">
<style type="text/css">
	.st0{fill:none;stroke:#5F0FB3;stroke-miterlimit:10;}
	.st1{fill:#5F0FB3;}
</style>
<circle class="st0" cx="24.5" cy="25.4" r="23.5"/>
<g>
	<path class="st1" d="M15.5,25.4c0,0.4,0.3,0.8,0.8,0.8h14.6l-3.5,3.5c-0.3,0.3-0.3,0.8,0,1.1c0.2,0.2,0.4,0.2,0.6,0.2
		c0.2,0,0.4-0.1,0.6-0.2l4.8-4.8c0.3-0.3,0.3-0.8,0-1.1l-4.8-4.8c-0.3-0.3-0.8-0.3-1.1,0c-0.3,0.3-0.3,0.8,0,1.1l3.5,3.5H16.3
		C15.9,24.6,15.5,25,15.5,25.4z"/>
</g>
</svg>
