<?xml version="1.0" encoding="utf-8"?>
<!-- Generator: Adobe Illustrator 21.0.2, SVG Export Plug-In . SVG Version: 6.00 Build 0)  -->
<svg version="1.1" id="Слой_1" xmlns="http://www.w3.org/2000/svg" xmlns:xlink="http://www.w3.org/1999/xlink" x="0px" y="0px"
	 viewBox="0 0 50 50" style="enable-background:new 0 0 50 50;" xml:space="preserve">
<style type="text/css">
	.st0{fill:none;stroke:#C7BAF1;stroke-miterlimit:10;}
	.st1{fill:#C7BAF1;}
</style>
<circle class="st0" cx="25" cy="25.4" r="23.5"/>
<g>
	<circle class="st1" cx="25" cy="25.4" r="3"/>
	<path class="st1" d="M30,16.4H20c-2.2,0-4,1.8-4,4v10c0,2.2,1.8,4,4,4h10c2.2,0,4-1.8,4-4v-10C34,18.2,32.2,16.4,30,16.4z M25,30.4
		c-2.8,0-5-2.2-5-5s2.2-5,5-5s5,2.2,5,5S27.7,30.4,25,30.4z M30.5,21.4c-0.8,0-1.5-0.7-1.5-1.5s0.7-1.5,1.5-1.5s1.5,0.7,1.5,1.5
		S31.3,21.4,30.5,21.4z"/>
</g>
</svg>
