<?xml version="1.0" encoding="utf-8"?>
<!-- Generator: Adobe Illustrator 21.0.2, SVG Export Plug-In . SVG Version: 6.00 Build 0)  -->
<svg version="1.1" id="Слой_1" xmlns="http://www.w3.org/2000/svg" xmlns:xlink="http://www.w3.org/1999/xlink" x="0px" y="0px"
	 viewBox="0 0 50 50" style="enable-background:new 0 0 50 50;" xml:space="preserve">
<style type="text/css">
	.st0{fill:#5F0FB3;}
	.st1{fill:none;stroke:#5F0FB3;stroke-miterlimit:10;}
</style>
<g>
	<g>
		<path class="st0" d="M17.9,22.8c0.2,0.2,0.9,0.6,2,1.4c1.1,0.8,1.9,1.4,2.5,1.8c0.1,0,0.2,0.1,0.4,0.3c0.2,0.2,0.4,0.3,0.5,0.4
			c0.1,0.1,0.3,0.2,0.5,0.3c0.2,0.1,0.4,0.2,0.6,0.3c0.2,0.1,0.3,0.1,0.5,0.1h0h0c0.1,0,0.3,0,0.5-0.1c0.2-0.1,0.4-0.1,0.6-0.3
			c0.2-0.1,0.4-0.2,0.5-0.3c0.1-0.1,0.3-0.2,0.5-0.4c0.2-0.2,0.3-0.3,0.4-0.3c0.6-0.4,2.1-1.5,4.5-3.1c0.5-0.3,0.9-0.7,1.2-1.2
			c0.3-0.5,0.5-1,0.5-1.5c0-0.4-0.2-0.8-0.5-1.1c-0.3-0.3-0.7-0.5-1.1-0.5H17.8c-0.5,0-0.9,0.2-1.1,0.5c-0.3,0.3-0.4,0.8-0.4,1.3
			c0,0.4,0.2,0.8,0.5,1.3C17.1,22.2,17.5,22.5,17.9,22.8z"/>
		<path class="st0" d="M32.6,23.8c-2.1,1.4-3.7,2.5-4.8,3.3c-0.4,0.3-0.7,0.5-0.9,0.6c-0.2,0.2-0.5,0.3-0.9,0.5
			c-0.4,0.2-0.7,0.2-1.1,0.2h0h0c-0.3,0-0.7-0.1-1.1-0.2c-0.4-0.2-0.7-0.3-0.9-0.5c-0.2-0.2-0.5-0.4-0.9-0.6
			c-0.9-0.6-2.5-1.8-4.8-3.3c-0.4-0.2-0.7-0.5-1-0.8v7.7c0,0.4,0.2,0.8,0.5,1.1c0.3,0.3,0.7,0.5,1.1,0.5H32c0.4,0,0.8-0.2,1.1-0.5
			c0.3-0.3,0.5-0.7,0.5-1.1V23C33.3,23.3,33,23.6,32.6,23.8z"/>
	</g>
</g>
<circle class="st1" cx="24.9" cy="25.4" r="23.5"/>
</svg>
