<?xml version="1.0" encoding="utf-8"?>
<!-- Generator: Adobe Illustrator 21.0.2, SVG Export Plug-In . SVG Version: 6.00 Build 0)  -->
<svg version="1.1" id="Слой_1" xmlns="http://www.w3.org/2000/svg" xmlns:xlink="http://www.w3.org/1999/xlink" x="0px" y="0px"
	 viewBox="0 0 50 50" style="enable-background:new 0 0 50 50;" xml:space="preserve">
<style type="text/css">
	.st0{fill:#C7BAF1;}
	.st1{fill:none;stroke:#C7BAF1;stroke-miterlimit:10;}
</style>
<g>
	<g>
		<path class="st0" d="M30.1,22.8c0-4.3-3.5-7.8-7.8-7.8c-4.3,0-7.8,3.5-7.8,7.8s3.5,7.8,7.8,7.8C26.7,30.6,30.1,27.1,30.1,22.8z
			 M22.4,28.7c-3.2,0-5.8-2.6-5.8-5.8s2.6-5.8,5.8-5.8c3.2,0,5.8,2.6,5.8,5.8S25.6,28.7,22.4,28.7z"/>
		<path class="st0" d="M34.8,32.5L30,27.7c-0.7,1.1-1.7,2-2.8,2.8l4.8,4.8c0.8,0.8,2,0.8,2.8,0C35.5,34.5,35.5,33.2,34.8,32.5z"/>
	</g>
</g>
<circle class="st1" cx="25" cy="25.4" r="23.5"/>
</svg>
